<svg version="1.0" preserveAspectRatio="xMidYMid meet" viewBox="90.60240963855422 146.5714273047619 1249.1566265060242 495.6428528595239" zoomAndPan="magnify" xmlns:xlink="http://www.w3.org/1999/xlink" xmlns="http://www.w3.org/2000/svg" style="max-height: 500px" width="1249.1566265060242" height="495.6428528595239"><defs><clipPath id="4896a6c4f8"><path clip-rule="nonzero" d="M 187 160 L 368 160 L 368 369 L 187 369 Z M 187 160"/></clipPath><clipPath id="60ff6a2d76"><path clip-rule="nonzero" d="M 222.964844 136.136719 L 431.867188 173.699219 L 396.828125 368.574219 L 187.925781 331.011719 Z M 222.964844 136.136719"/></clipPath><clipPath id="ae82efdddc"><path clip-rule="nonzero" d="M 55.058594 -380.976562 L 1028.695312 -205.914062 L 854.03125 765.507812 L -119.605469 590.445312 Z M 55.058594 -380.976562"/></clipPath><clipPath id="8b833d0bac"><path clip-rule="nonzero" d="M 198 222 L 223.585938 222 L 223.585938 513 L 198 513 Z M 198 222"/></clipPath><clipPath id="5c05d48632"><path clip-rule="nonzero" d="M 197 337.28125 L 380.210938 337.28125 L 380.210938 513 L 197 513 Z M 197 337.28125"/></clipPath><clipPath id="5bdd906da0"><path clip-rule="nonzero" d="M 110 337.28125 L 220 337.28125 L 220 513 L 110 513 Z M 110 337.28125"/></clipPath></defs><g clip-path="url(#4896a6c4f8)"><g clip-path="url(#60ff6a2d76)"><g clip-path="url(#ae82efdddc)"><path fill-rule="nonzero" fill-opacity="1" d="M 247.542969 160.308594 L 248.332031 160.464844 C 259.1875 162.605469 267.394531 167.175781 273.628906 176.617188 C 281.992188 189.273438 283.949219 205.558594 281.035156 220.246094 C 288.996094 209.742188 296.910156 200.980469 308.363281 194.167969 C 318.148438 188.351562 329.355469 187.3125 340.320312 190.1875 C 349.742188 192.65625 357.265625 197.851562 362.128906 206.371094 C 367.769531 216.25 368.238281 227.496094 365.25 238.328125 C 353.375 281.414062 298.199219 313.75 260.671875 332.226562 C 249.589844 337.683594 238 341.707031 227.191406 347.84375 C 229.523438 348.820312 231.605469 349.964844 233.667969 351.425781 C 239.164062 355.328125 243.171875 360.605469 246.410156 366.460938 C 264.121094 398.476562 248.089844 435.480469 255.394531 469.558594 C 257.488281 479.324219 260.839844 491.148438 266.496094 499.519531 C 269.898438 504.558594 278.714844 507.046875 279.75 513.34375 C 279.417969 514.480469 279.328125 515.234375 278.230469 515.902344 C 275.871094 517.339844 271.804688 516.460938 269.242188 515.886719 C 257.464844 513.238281 246.605469 505.800781 238.890625 496.636719 C 232.058594 488.519531 226.164062 478.898438 223.207031 468.679688 C 221.40625 462.445312 221.285156 455.519531 220.835938 449.074219 C 219.550781 430.613281 220.035156 412.523438 221.285156 394.089844 C 221.988281 383.707031 223.5625 372.859375 223.289062 362.484375 C 223.191406 358.789062 223.003906 355.617188 220.976562 352.414062 C 220.3125 351.996094 220.328125 351.804688 219.507812 351.96875 C 213.304688 353.226562 198.792969 364.914062 193.523438 369.441406 C 185.269531 376.535156 178.195312 383.921875 171.328125 392.359375 C 166.167969 398.703125 161.277344 404.976562 157.703125 412.390625 C 152.90625 422.34375 151.382812 434.03125 149.253906 444.777344 C 147.746094 452.398438 146.03125 459.980469 144.617188 467.617188 C 143.859375 471.683594 143.769531 478.894531 141.292969 482.1875 C 140.574219 483.144531 139.753906 483.832031 138.503906 483.910156 C 136.109375 484.054688 133.992188 481.78125 132.28125 480.359375 C 129.929688 466.898438 132.136719 448.875 135.78125 435.941406 C 137.5625 429.617188 140.15625 423.582031 141.574219 417.152344 C 144.621094 403.3125 147.101562 389.339844 150.269531 375.523438 C 153.332031 362.179688 157.328125 349.085938 159.871094 335.613281 C 161.882812 324.980469 162.707031 313.957031 163.320312 303.152344 C 165.289062 282.972656 168.660156 252.734375 164.398438 233.332031 C 163.511719 229.136719 162.214844 225.074219 160.511719 221.144531 C 157.683594 214.625 149.179688 201.402344 149.464844 194.660156 C 149.523438 193.316406 150.09375 192.90625 151.082031 192.132812 C 152.890625 191.847656 154.132812 192.003906 155.882812 192.566406 C 170.3125 197.210938 181.71875 204.023438 188.683594 217.914062 C 206.035156 252.519531 188.300781 314.582031 176.734375 349.582031 C 173.484375 359.425781 169.636719 369.085938 166.3125 378.914062 C 172.269531 374.210938 177.402344 368.5625 183.050781 363.503906 C 189.097656 358.09375 196.382812 353.109375 203.253906 348.800781 C 226.300781 334.363281 251.324219 323.308594 274.542969 309.097656 C 278.914062 306.421875 283.472656 303.96875 287.632812 300.964844 C 310.996094 284.078125 333.015625 263.21875 345.78125 236.976562 C 348.253906 231.894531 350.859375 226.472656 351.671875 220.824219 C 352.316406 216.332031 352.09375 210.78125 349.171875 207.054688 C 346.542969 203.703125 342.0625 202.257812 337.957031 201.957031 C 312.175781 200.066406 290.257812 230.308594 277.699219 249.226562 C 274.238281 254.4375 269.109375 264.484375 264.097656 268.171875 C 263.070312 268.929688 262.359375 268.871094 261.15625 268.738281 C 260.296875 268.1875 259.6875 267.726562 259.195312 266.832031 C 258.460938 265.5 258.175781 264.011719 258.429688 262.507812 C 259.027344 258.980469 260.910156 255.101562 262.089844 251.671875 C 264.390625 245.027344 266.496094 238.320312 268.40625 231.550781 C 272.566406 216.25 276.25 196.695312 267.839844 182.21875 C 265.335938 177.90625 261.308594 174.078125 256.339844 172.914062 C 252.113281 171.921875 247.648438 173.066406 244.074219 175.429688 C 240.480469 177.800781 238 181.449219 235.945312 185.15625 C 224.355469 206.101562 235.351562 229.664062 240.824219 250.648438 C 242.230469 256.058594 243.292969 262.539062 243.816406 268.105469 C 244.363281 273.929688 242.710938 280.523438 241.585938 286.238281 C 239.882812 288.152344 238.394531 289.859375 235.675781 289.964844 C 233.976562 290.027344 232.296875 289.851562 231.027344 288.59375 C 230.664062 288.230469 230.359375 287.820312 230.117188 287.363281 C 228.015625 283.4375 230.6875 277.773438 230.992188 273.570312 C 231.386719 268.1875 229.804688 262.519531 228.84375 257.242188 C 227.976562 252.476562 227.179688 247.695312 225.929688 243.015625 C 222.585938 230.484375 216.734375 215.398438 216.355469 202.671875 C 216.023438 191.65625 218.578125 177.117188 226.441406 168.898438 C 232.472656 162.597656 238.921875 160.488281 247.542969 160.308594 Z M 247.542969 160.308594" fill="#ff5757"/></g></g></g><g clip-path="url(#8b833d0bac)"><path fill-rule="nonzero" fill-opacity="1" d="M 300.417969 222.589844 C 305.65625 223.0625 311.191406 222.71875 316.460938 222.71875 L 347.441406 222.667969 C 352.792969 222.65625 358.65625 222.183594 363.914062 223.109375 L 364.074219 224.734375 C 361.523438 229.449219 348.617188 231.882812 343.550781 234.367188 C 339.617188 236.300781 335.917969 238.875 332.617188 241.75 C 324.394531 248.910156 317.242188 257.207031 309.570312 264.933594 C 288.246094 286.417969 267.515625 308.574219 245.910156 329.769531 C 251.53125 339.929688 259.132812 349.625 265.707031 359.246094 L 305.015625 416.621094 L 336.207031 462.246094 C 343.847656 473.484375 351.167969 485.738281 360.632812 495.542969 C 367.03125 502.167969 373.910156 503.28125 381.429688 507.582031 C 382.585938 508.242188 383.65625 508.992188 384.050781 510.328125 L 383.394531 511.097656 C 380.367188 512.210938 376.859375 511.796875 373.679688 511.730469 L 310.714844 511.796875 C 299.535156 511.808594 287.960938 512.449219 276.824219 511.738281 C 275.128906 511.632812 273.882812 511.714844 272.507812 510.652344 L 272.527344 509.636719 C 275.171875 506.195312 281.578125 505.339844 285.121094 502.820312 C 286.605469 501.765625 287.3125 499.589844 287.601562 497.867188 C 288.25 494.027344 286.78125 490.019531 284.96875 486.675781 C 282.238281 481.644531 278.480469 476.972656 275.1875 472.285156 L 257.660156 447.3125 L 198.773438 363.71875 C 206.011719 353.898438 216.96875 344.726562 225.585938 335.910156 L 280.359375 279.878906 C 290.550781 269.519531 301.703125 259.375 311.054688 248.285156 C 313.765625 245.070312 316.507812 241.5 316.035156 237.015625 C 315.335938 230.417969 304.90625 229.824219 300.605469 226.242188 C 299.957031 224.605469 300.054688 224.238281 300.417969 222.589844 Z M 300.417969 222.589844" fill="#00004a"/></g><path fill-rule="nonzero" fill-opacity="1" d="M 121.222656 222.703125 C 132.476562 222.722656 216.039062 221.828125 219.074219 222.875 C 219.484375 223.015625 220.011719 223.457031 220.394531 223.695312 L 220.632812 225.019531 C 218.539062 229.394531 206.75 231.183594 202.304688 236.960938 C 199.238281 240.941406 198.242188 246.105469 197.878906 251.007812 C 196.867188 264.605469 197.828125 278.789062 197.824219 292.464844 L 197.824219 380.476562 L 197.789062 450.867188 C 197.789062 462.730469 196.796875 475.65625 198.304688 487.390625 C 200.460938 504.210938 209.222656 499.710938 219.261719 507.855469 C 220.300781 508.699219 220.269531 508.90625 220.378906 510.179688 C 219 511.585938 218.730469 511.527344 216.777344 511.71875 C 204.167969 511.75 115.875 510.988281 113.554688 511.808594 C 113.4375 511.851562 113.316406 511.902344 113.199219 511.945312 L 112.84375 511.351562 L 111.46875 511.5 L 111.011719 510.34375 C 113.429688 504.074219 127.074219 504.046875 130.804688 498.027344 L 130.992188 497.722656 C 133.148438 494.234375 134.136719 490.570312 134.53125 486.503906 C 135.683594 474.644531 134.738281 461.9375 134.742188 449.992188 L 134.769531 375.300781 L 134.765625 293.175781 C 134.78125 278.039062 135.652344 262.308594 134.363281 247.246094 C 133.96875 242.652344 133.136719 239.921875 130.207031 236.230469 C 126.050781 230.992188 113.558594 230.457031 111.132812 224.746094 L 111.742188 223.730469 C 114.699219 222.453125 118.0625 222.726562 121.222656 222.703125 Z M 121.222656 222.703125" fill="#00004a"/><path fill-rule="nonzero" fill-opacity="1" d="M 856.449219 301.578125 C 864.367188 300.515625 963.660156 300.816406 966.640625 302.1875 L 966.867188 303.289062 C 963.898438 307.027344 956.6875 307.917969 952.628906 310.789062 C 949.070312 313.304688 946.984375 316.585938 947.019531 321.023438 C 947.089844 330.917969 955.296875 348.085938 959.003906 357.757812 L 984.351562 423.722656 C 987.261719 431.292969 992.980469 443.464844 994.886719 450.847656 C 995.070312 451.554688 995.003906 452.269531 994.882812 452.984375 C 995.191406 452.75 995.460938 452.511719 995.734375 452.234375 C 997.703125 450.238281 1036.339844 344.0625 1039.953125 331.945312 C 1041.132812 327.984375 1042.019531 323.589844 1042.035156 319.4375 C 1042.078125 305.753906 1028.042969 310.355469 1022.328125 304.007812 C 1021.695312 303.304688 1021.835938 303.042969 1021.84375 302.144531 C 1026.015625 300.304688 1077.4375 300.882812 1082.753906 302.203125 L 1083.183594 303.207031 C 1080.765625 307.894531 1066.429688 309.960938 1061.753906 314.300781 C 1058.894531 316.949219 1056.78125 320.890625 1055.113281 324.359375 C 1049.5 336.0625 1045.726562 349.230469 1041.226562 361.441406 L 1013.945312 435.777344 C 1011.296875 443.113281 1003.726562 468.246094 999.378906 473.109375 C 999.472656 473.5 999.53125 473.878906 999.550781 474.277344 C 999.765625 478.269531 993.117188 492.675781 991.464844 497.082031 C 979.289062 529.492188 966.242188 573.703125 942.804688 599.386719 C 932.636719 610.53125 920.453125 616.300781 905.402344 616.957031 C 894.339844 617.441406 882.488281 615.421875 874.089844 607.636719 C 868.304688 602.277344 865.238281 595.175781 864.9375 587.328125 C 864.671875 580.308594 866.527344 573.820312 871.359375 568.609375 C 876.9375 562.597656 885.222656 559.355469 893.339844 559.128906 C 902.941406 558.863281 912.902344 562.972656 919.214844 570.300781 C 922.714844 574.359375 925.648438 579.113281 929.550781 582.792969 C 931.777344 584.890625 934.695312 586.945312 937.902344 586.761719 C 940.839844 586.589844 943.21875 584.5625 945.035156 582.40625 C 949.679688 576.882812 967.5625 540.347656 966.882812 534.273438 C 966.871094 534.175781 966.851562 534.082031 966.839844 533.988281 C 966.878906 533.382812 966.84375 532.789062 966.710938 532.199219 C 965.070312 524.699219 959.039062 513.714844 955.992188 506.164062 C 943.261719 474.640625 929.726562 443.398438 916.667969 412.007812 L 888.9375 345.496094 C 885.710938 337.789062 882.382812 326.613281 878.035156 319.917969 C 872.820312 311.878906 865.425781 310.578125 858.171875 305.460938 C 856.59375 304.351562 856.746094 303.355469 856.449219 301.578125 Z M 856.449219 301.578125" fill="#00004a"/><path fill-rule="nonzero" fill-opacity="1" d="M 1180.402344 295.320312 C 1181.425781 295.242188 1182.449219 295.175781 1183.472656 295.125 C 1216.195312 293.449219 1246.105469 298.871094 1271.175781 321.578125 C 1292.78125 341.152344 1303.277344 369.195312 1304.734375 397.855469 C 1306.34375 429.464844 1299.214844 462.09375 1277.503906 486.085938 C 1276.417969 487.261719 1275.308594 488.414062 1274.171875 489.535156 C 1273.03125 490.65625 1271.867188 491.75 1270.675781 492.816406 C 1269.484375 493.882812 1268.269531 494.917969 1267.027344 495.925781 C 1265.785156 496.933594 1264.515625 497.90625 1263.230469 498.851562 C 1261.9375 499.796875 1260.628906 500.710938 1259.292969 501.59375 C 1257.957031 502.472656 1256.605469 503.320312 1255.230469 504.136719 C 1253.855469 504.949219 1252.460938 505.730469 1251.046875 506.476562 C 1249.632812 507.222656 1248.203125 507.9375 1246.753906 508.613281 C 1245.308594 509.289062 1243.84375 509.933594 1242.363281 510.539062 C 1240.886719 511.144531 1239.394531 511.710938 1237.886719 512.246094 C 1236.378906 512.777344 1234.859375 513.273438 1233.328125 513.734375 C 1231.800781 514.191406 1230.257812 514.613281 1228.707031 514.996094 C 1227.15625 515.378906 1225.59375 515.726562 1224.027344 516.035156 C 1222.457031 516.339844 1220.882812 516.609375 1219.304688 516.84375 C 1217.722656 517.070312 1216.136719 517.265625 1214.542969 517.417969 C 1212.953125 517.570312 1211.359375 517.6875 1209.765625 517.761719 C 1209.664062 517.78125 1209.566406 517.800781 1209.46875 517.816406 C 1204.464844 518.703125 1198.785156 518.480469 1193.6875 518.382812 C 1171.621094 517.964844 1150.230469 513.179688 1131.8125 500.464844 C 1107.839844 483.917969 1094.933594 459.359375 1089.777344 431.222656 C 1084.101562 400.222656 1088.652344 364.851562 1106.832031 338.640625 C 1124.457031 313.230469 1150.722656 300.671875 1180.402344 295.320312 Z M 1193.328125 303.453125 C 1182.511719 305.226562 1174.582031 307.433594 1167.929688 316.761719 C 1149.1875 343.03125 1152.359375 435.941406 1157.902344 468.371094 C 1160.027344 480.808594 1164.089844 496.003906 1174.90625 503.722656 C 1180.894531 507.992188 1189.300781 510.425781 1196.636719 510.21875 C 1206.277344 509.800781 1215.683594 507.074219 1222.359375 499.746094 C 1241.054688 479.207031 1239.894531 407.710938 1238.492188 380.234375 C 1237.503906 360.910156 1235.625 325.199219 1220.601562 311.660156 C 1213.402344 305.167969 1203.472656 302.882812 1193.980469 303.414062 Z M 1193.328125 303.453125" fill="#00004a"/><path fill-rule="nonzero" fill-opacity="1" d="M 481.378906 295.273438 C 513.007812 293.414062 542.617188 297.660156 567.726562 318.78125 C 589.640625 337.214844 601.773438 363.394531 604.125 391.6875 C 606.78125 423.664062 601.5 457.59375 580.144531 482.734375 C 579.097656 483.984375 578.019531 485.207031 576.914062 486.402344 C 575.808594 487.597656 574.671875 488.769531 573.503906 489.90625 C 572.339844 491.046875 571.144531 492.15625 569.925781 493.238281 C 568.707031 494.316406 567.460938 495.367188 566.1875 496.382812 C 564.914062 497.402344 563.617188 498.386719 562.292969 499.339844 C 560.972656 500.292969 559.628906 501.214844 558.261719 502.101562 C 556.894531 502.988281 555.503906 503.839844 554.09375 504.660156 C 552.683594 505.476562 551.257812 506.257812 549.808594 507.003906 C 548.359375 507.75 546.894531 508.460938 545.410156 509.132812 C 543.925781 509.808594 542.425781 510.445312 540.910156 511.042969 C 539.394531 511.640625 537.867188 512.203125 536.324219 512.722656 C 534.78125 513.246094 533.226562 513.730469 531.65625 514.175781 C 530.089844 514.621094 528.511719 515.027344 526.925781 515.394531 C 525.339844 515.761719 523.742188 516.089844 522.140625 516.375 C 520.535156 516.664062 518.925781 516.910156 517.308594 517.117188 C 515.695312 517.324219 514.074219 517.492188 512.449219 517.617188 C 483.601562 521.324219 451.332031 515.777344 427.96875 497.769531 C 426.652344 496.738281 425.359375 495.671875 424.09375 494.578125 C 422.828125 493.480469 421.585938 492.355469 420.378906 491.199219 C 419.167969 490.042969 417.984375 488.859375 416.828125 487.644531 C 415.675781 486.433594 414.550781 485.191406 413.460938 483.921875 C 412.367188 482.652344 411.304688 481.359375 410.273438 480.039062 C 409.246094 478.71875 408.246094 477.375 407.28125 476.003906 C 406.316406 474.636719 405.386719 473.246094 404.488281 471.832031 C 403.59375 470.414062 402.730469 468.980469 401.902344 467.523438 C 401.074219 466.066406 400.285156 464.59375 399.53125 463.097656 C 398.773438 461.601562 398.054688 460.089844 397.375 458.558594 C 396.691406 457.03125 396.046875 455.484375 395.441406 453.921875 C 394.835938 452.363281 394.265625 450.785156 393.734375 449.195312 C 393.207031 447.609375 392.714844 446.007812 392.261719 444.394531 C 391.8125 442.78125 391.398438 441.15625 391.027344 439.527344 C 390.652344 437.894531 390.320312 436.25 390.027344 434.601562 C 389.734375 432.953125 389.480469 431.296875 389.269531 429.636719 C 384.910156 396.167969 388.652344 361.890625 409.796875 334.453125 C 427.140625 311.941406 453.546875 298.921875 481.378906 295.273438 Z M 494.257812 303.398438 C 484.054688 304.671875 475.304688 306.816406 468.675781 315.300781 C 449.105469 340.339844 452.644531 431.058594 456.660156 462.742188 C 458.347656 476.050781 462.542969 494.460938 473.683594 503 C 480.625 508.324219 490.066406 510.503906 498.683594 510.269531 C 508.34375 508.972656 517.4375 506.230469 523.574219 498.160156 C 530.429688 489.144531 533.597656 475.457031 535.402344 464.363281 C 539.824219 437.210938 539.792969 379.359375 535.886719 351.726562 C 533.910156 337.757812 530.144531 318.664062 518.300781 309.824219 C 511.550781 304.785156 502.550781 302.933594 494.257812 303.398438 Z M 494.257812 303.398438" fill="#00004a"/><path fill-rule="nonzero" fill-opacity="1" d="M 835.859375 294.066406 C 837.46875 294.488281 840.109375 296.027344 840.964844 297.449219 C 841.011719 297.554688 841.054688 297.664062 841.105469 297.769531 C 841.292969 298.179688 841.480469 298.582031 841.628906 299.011719 C 842.972656 302.847656 843.058594 316.472656 841.265625 320.074219 C 824.878906 319.929688 808.492188 320.023438 792.109375 320.351562 C 796.042969 323.550781 799.101562 328.363281 801.320312 332.878906 C 809.453125 349.453125 810.789062 371.324219 804.730469 388.757812 C 798.910156 405.511719 785.96875 418.972656 770.074219 426.59375 C 749.035156 436.6875 719.746094 438.648438 696.984375 434.503906 C 686.53125 432.601562 677.171875 429.390625 667.199219 425.882812 C 669.585938 429.480469 667.578125 439.847656 668.410156 444.496094 C 668.976562 447.648438 671.164062 450.316406 671.941406 453.449219 C 671.96875 453.570312 672 453.695312 672.027344 453.824219 C 676.359375 455.167969 680.464844 456.820312 684.910156 457.863281 C 690.839844 459.261719 696.90625 459.984375 702.886719 461.136719 L 746.230469 469.386719 C 771.164062 473.9375 800.628906 477.828125 821.050781 494.03125 C 830.035156 501.160156 836.09375 511.097656 837.347656 522.585938 C 839.390625 541.34375 835.808594 557.972656 823.824219 572.890625 C 805.246094 596.015625 774.941406 607.554688 746.234375 610.660156 C 745.257812 610.898438 744.269531 611.097656 743.277344 611.265625 C 714.046875 616.125 663.714844 613.300781 639.390625 595.738281 C 630.703125 589.460938 623.996094 580.042969 622.328125 569.316406 C 619.007812 547.917969 631.839844 528.425781 646.863281 514.542969 C 649.851562 511.785156 655.0625 509.292969 657.269531 506.140625 C 657.324219 506.0625 657.371094 505.984375 657.421875 505.902344 C 654.375 501.882812 643.980469 498.617188 638.800781 491.460938 C 622.15625 468.460938 644.761719 447.777344 657.9375 430.5 C 659.304688 428.707031 661.929688 425.925781 662.214844 423.722656 C 662.230469 423.628906 662.230469 423.535156 662.238281 423.441406 C 660.46875 420.691406 655.289062 417.90625 652.570312 415.613281 C 648.363281 412.070312 644.558594 408.09375 641.476562 403.519531 C 631.445312 388.628906 629.757812 365.980469 633.246094 348.628906 C 636.570312 332.054688 647.132812 318.210938 661.074219 308.992188 C 683.214844 294.351562 721.617188 291.621094 747.035156 296.878906 C 757.558594 299.058594 780.464844 305.78125 786.414062 314.808594 C 805.164062 312.265625 820.945312 305.605469 835.859375 294.066406 Z M 667.496094 508.082031 C 664.957031 513.871094 661.539062 519.183594 659.070312 525.039062 C 653.347656 538.632812 652.082031 556.839844 657.535156 570.726562 C 657.796875 571.382812 658.070312 572.03125 658.359375 572.675781 C 658.652344 573.316406 658.957031 573.949219 659.277344 574.578125 C 659.601562 575.203125 659.9375 575.824219 660.289062 576.433594 C 660.644531 577.042969 661.011719 577.644531 661.394531 578.238281 C 661.777344 578.828125 662.171875 579.410156 662.582031 579.980469 C 662.996094 580.554688 663.417969 581.117188 663.859375 581.667969 C 664.296875 582.21875 664.75 582.757812 665.214844 583.289062 C 665.679688 583.816406 666.160156 584.332031 666.648438 584.839844 C 667.140625 585.34375 667.644531 585.835938 668.160156 586.316406 C 668.675781 586.796875 669.203125 587.261719 669.738281 587.71875 C 670.277344 588.171875 670.828125 588.609375 671.390625 589.039062 C 671.949219 589.464844 672.519531 589.878906 673.101562 590.277344 C 673.683594 590.675781 674.273438 591.058594 674.871094 591.429688 C 675.472656 591.796875 676.078125 592.152344 676.695312 592.492188 C 677.3125 592.832031 677.9375 593.15625 678.570312 593.460938 C 679.203125 593.769531 679.84375 594.0625 680.492188 594.339844 C 703.160156 604.191406 742.125 603.71875 764.945312 594.511719 C 766.210938 594.003906 768.964844 593.027344 769.703125 591.933594 C 777.109375 590.109375 784.429688 582.566406 788.265625 576.21875 C 793.003906 568.375 795.101562 557.679688 792.8125 548.710938 C 791.050781 541.8125 786.558594 536.8125 780.523438 533.25 C 764.25 523.648438 724.667969 519.386719 705.082031 515.507812 C 695.039062 513.523438 685.066406 511.578125 674.984375 509.792969 C 672.535156 509.359375 669.914062 508.269531 667.496094 508.082031 Z M 716.890625 303.457031 C 708.246094 305.46875 701.910156 307.59375 697.035156 315.480469 C 685.136719 334.734375 684.949219 378.820312 690.226562 400.679688 C 692.367188 409.546875 696.699219 419.023438 704.808594 423.882812 C 709.9375 426.957031 715.6875 427.492188 721.554688 427.105469 C 729.414062 426.59375 735.277344 424.6875 740.609375 418.660156 C 755.113281 402.269531 753.828125 369.605469 752.488281 348.949219 C 751.652344 336.097656 749.464844 318.898438 739.179688 309.90625 C 733.097656 304.589844 724.777344 302.917969 716.890625 303.457031 Z M 716.890625 303.457031" fill="#00004a"/><g clip-path="url(#5c05d48632)"><path fill-rule="nonzero" fill-opacity="1" d="M 299.542969 222.710938 C 304.785156 223.1875 310.316406 222.84375 315.585938 222.839844 L 346.570312 222.789062 C 351.917969 222.78125 357.78125 222.308594 363.042969 223.234375 L 363.199219 224.855469 C 360.648438 229.574219 347.742188 232.003906 342.679688 234.492188 C 338.746094 236.421875 335.046875 239 331.742188 241.875 C 323.519531 249.035156 316.367188 257.328125 308.699219 265.054688 C 287.371094 286.539062 266.640625 308.699219 245.039062 329.890625 C 250.65625 340.054688 258.257812 349.746094 264.832031 359.371094 L 304.140625 416.746094 L 335.335938 462.371094 C 342.972656 473.605469 350.292969 485.863281 359.757812 495.664062 C 366.160156 502.292969 373.039062 503.40625 380.554688 507.703125 C 381.710938 508.363281 382.78125 509.113281 383.175781 510.449219 L 382.519531 511.222656 C 379.492188 512.332031 375.984375 511.917969 372.808594 511.851562 L 309.84375 511.921875 C 298.664062 511.933594 287.089844 512.574219 275.949219 511.863281 C 274.253906 511.753906 273.011719 511.835938 271.632812 510.773438 L 271.652344 509.757812 C 274.296875 506.320312 280.703125 505.460938 284.246094 502.941406 C 285.730469 501.886719 286.4375 499.714844 286.730469 497.992188 C 287.375 494.148438 285.910156 490.144531 284.09375 486.800781 C 281.363281 481.765625 277.605469 477.097656 274.316406 472.410156 L 256.789062 447.433594 L 197.898438 363.84375 C 205.136719 354.019531 216.09375 344.847656 224.710938 336.035156 L 279.488281 280.003906 C 289.675781 269.644531 300.828125 259.5 310.183594 248.40625 C 312.894531 245.195312 315.636719 241.621094 315.160156 237.140625 C 314.464844 230.542969 304.035156 229.945312 299.734375 226.363281 C 299.082031 224.726562 299.179688 224.359375 299.542969 222.710938 Z M 299.542969 222.710938" fill="#00004a"/></g><g clip-path="url(#5bdd906da0)"><path fill-rule="nonzero" fill-opacity="1" d="M 120.351562 222.824219 C 131.601562 222.84375 215.167969 221.953125 218.199219 223 C 218.609375 223.140625 219.136719 223.582031 219.519531 223.816406 L 219.757812 225.144531 C 217.664062 229.519531 205.875 231.308594 201.429688 237.082031 C 198.363281 241.0625 197.367188 246.230469 197.003906 251.132812 C 195.996094 264.726562 196.953125 278.910156 196.949219 292.589844 L 196.953125 380.601562 L 196.914062 450.988281 C 196.914062 462.855469 195.925781 475.78125 197.429688 487.511719 C 199.585938 504.335938 208.347656 499.832031 218.390625 507.980469 C 219.425781 508.820312 219.398438 509.027344 219.503906 510.304688 C 218.125 511.707031 217.855469 511.652344 215.902344 511.839844 C 203.292969 511.871094 115.003906 511.113281 112.683594 511.933594 C 112.5625 511.976562 112.445312 512.023438 112.324219 512.070312 L 111.972656 511.476562 L 110.597656 511.625 L 110.136719 510.464844 C 112.554688 504.195312 126.199219 504.167969 129.929688 498.152344 L 130.117188 497.84375 C 132.277344 494.359375 133.261719 490.695312 133.65625 486.628906 C 134.808594 474.765625 133.863281 462.058594 133.867188 450.117188 L 133.894531 375.421875 L 133.890625 293.300781 C 133.90625 278.164062 134.78125 262.433594 133.488281 247.367188 C 133.09375 242.773438 132.265625 240.042969 129.335938 236.355469 C 125.175781 231.117188 112.683594 230.582031 110.261719 224.867188 L 110.867188 223.851562 C 113.824219 222.578125 117.1875 222.847656 120.351562 222.824219 Z M 120.351562 222.824219" fill="#00004a"/></g></svg>